<svg width="72" height="72" viewBox="0 0 72 72" fill="none" xmlns="http://www.w3.org/2000/svg">
<rect x="9.40503" y="14.4048" width="43" height="43" rx="21.5" stroke="#767676" stroke-width="2"/>
<g clip-path="url(#clip0_20_1238)">
<path d="M32.8523 48.4048V36.979H36.6609L37.2468 32.5356H32.8523V29.7036C32.8523 29.0688 32.9866 28.5521 33.2551 28.1533C33.5237 27.7546 34.1218 27.5552 35.0496 27.5552H37.3933V23.6001C37.198 23.5513 36.783 23.5065 36.1482 23.4658C35.5134 23.4251 34.7891 23.4048 33.9753 23.4048C33.129 23.4048 32.3477 23.535 31.6316 23.7954C30.9317 24.0396 30.3336 24.4098 29.8372 24.9062C29.3407 25.4027 28.9542 26.0171 28.6775 26.7495C28.4008 27.4657 28.2625 28.3039 28.2625 29.2642V32.5356H24.405V36.979H28.2625V48.4048H32.8523Z" fill="#33475B"/>
</g>
<defs>
<clipPath id="clip0_20_1238">
<rect width="25" height="25" fill="white" transform="matrix(1 0 0 -1 24.405 48.4048)"/>
</clipPath>
</defs>
</svg>
