<svg width="48" height="48" viewBox="0 0 48 48" fill="none" xmlns="http://www.w3.org/2000/svg">
<path d="M24 24C28.4187 24 32 20.8664 32 17C32 13.1336 28.4187 10 24 10C19.5813 10 16 13.1336 16 17C16 20.8664 19.5813 24 24 24ZM29.6 25.75H28.5562C27.1687 26.3078 25.625 26.625 24 26.625C22.375 26.625 20.8375 26.3078 19.4438 25.75H18.4C13.7625 25.75 10 29.0422 10 33.1V35.375C10 36.8242 11.3438 38 13 38H35C36.6562 38 38 36.8242 38 35.375V33.1C38 29.0422 34.2375 25.75 29.6 25.75Z" fill="white"/>
</svg>
