<svg width="48" height="44" viewBox="0 0 48 44" fill="none" xmlns="http://www.w3.org/2000/svg">
<path d="M38 16V31.4286C38 32.8482 36.8242 34 35.375 34H12.625C11.1758 34 10 32.8482 10 31.4286V16C10 14.5804 11.1758 13.4286 12.625 13.4286H17.4375L18.1102 11.6661C18.493 10.6643 19.4719 10 20.5656 10H27.4289C28.5227 10 29.5016 10.6643 29.8844 11.6661L30.5625 13.4286H35.375C36.8242 13.4286 38 14.5804 38 16ZM30.5625 23.7143C30.5625 20.1679 27.6203 17.2857 24 17.2857C20.3797 17.2857 17.4375 20.1679 17.4375 23.7143C17.4375 27.2607 20.3797 30.1429 24 30.1429C27.6203 30.1429 30.5625 27.2607 30.5625 23.7143ZM28.8125 23.7143C28.8125 26.3125 26.6523 28.4286 24 28.4286C21.3477 28.4286 19.1875 26.3125 19.1875 23.7143C19.1875 21.1161 21.3477 19 24 19C26.6523 19 28.8125 21.1161 28.8125 23.7143Z" fill="white"/>
</svg>
