<svg width="45" height="46" viewBox="0 0 45 46" fill="none" xmlns="http://www.w3.org/2000/svg">
<path d="M31.2556 14.012C28.9174 11.6682 25.8036 10.3792 22.4944 10.3792C15.6641 10.3792 10.106 15.9372 10.106 22.7675C10.106 24.9495 10.6752 27.0812 11.7578 28.9617L10 35.3792L16.5681 33.6548C18.3761 34.6425 20.4129 35.1615 22.4888 35.1615H22.4944C29.3192 35.1615 35 29.6035 35 22.7731C35 19.464 33.5938 16.3557 31.2556 14.012ZM22.4944 33.0745C20.6417 33.0745 18.8281 32.5778 17.2489 31.6403L16.875 31.4171L12.9799 32.4383L14.0179 28.6381L13.7723 28.2475C12.74 26.6068 12.1987 24.7151 12.1987 22.7675C12.1987 17.0923 16.8192 12.4718 22.5 12.4718C25.2511 12.4718 27.8348 13.5432 29.7768 15.4908C31.7188 17.4383 32.9129 20.022 32.9074 22.7731C32.9074 28.4539 28.1696 33.0745 22.4944 33.0745ZM28.1417 25.3624C27.8348 25.2062 26.3114 24.4584 26.0268 24.3579C25.7422 24.2519 25.5357 24.2017 25.3292 24.5142C25.1228 24.8267 24.5312 25.5187 24.3471 25.7307C24.1685 25.9372 23.9844 25.9651 23.6775 25.8088C21.8583 24.8992 20.6641 24.185 19.4643 22.1258C19.1462 21.5789 19.7824 21.618 20.3739 20.435C20.4743 20.2285 20.4241 20.0499 20.346 19.8937C20.2679 19.7374 19.6484 18.214 19.3917 17.5946C19.1406 16.9919 18.8839 17.0756 18.6942 17.0644C18.5156 17.0533 18.3092 17.0533 18.1027 17.0533C17.8962 17.0533 17.5614 17.1314 17.2768 17.4383C16.9922 17.7508 16.1942 18.4986 16.1942 20.022C16.1942 21.5454 17.3047 23.0187 17.4554 23.2251C17.6116 23.4316 19.6373 26.5566 22.7455 27.9015C24.7098 28.7497 25.4799 28.8222 26.4621 28.6771C27.0592 28.5879 28.2924 27.9294 28.5491 27.2039C28.8058 26.4785 28.8058 25.8591 28.7277 25.7307C28.6551 25.5912 28.4487 25.5131 28.1417 25.3624Z" fill="#7F7F7F"/>
</svg>
