<svg width="46" height="38" viewBox="0 0 46 38" fill="none" xmlns="http://www.w3.org/2000/svg">
<path d="M35.2861 13.8987C35.2861 13.8987 35.217 13.5772 35.0786 12.9343C34.9403 12.2914 34.6839 11.7828 34.3096 11.4084C33.8213 10.9039 33.3371 10.6069 32.8569 10.5173C32.3768 10.4278 32.0146 10.3668 31.7705 10.3342C30.9079 10.2691 29.9639 10.2203 28.9385 10.1877C27.9294 10.1552 26.9854 10.1308 26.1064 10.1145C25.2275 10.0982 24.4951 10.0901 23.9092 10.0901C23.3232 10.0901 23.0303 10.0901 23.0303 10.0901C23.0303 10.0901 22.7373 10.0901 22.1514 10.0901C21.5654 10.0901 20.833 10.0982 19.9541 10.1145C19.0752 10.1308 18.1312 10.1552 17.1221 10.1877C16.0967 10.2203 15.1527 10.2691 14.29 10.3342C14.0459 10.3505 13.6838 10.4034 13.2036 10.4929C12.7235 10.5824 12.2393 10.8876 11.751 11.4084C11.3929 11.7665 11.1406 12.2711 10.9941 12.9221C10.8477 13.5732 10.7744 13.8987 10.7744 13.8987C10.7744 13.8987 10.7337 14.3137 10.6523 15.1438C10.571 15.9739 10.5303 16.8935 10.5303 17.9026V19.8069C10.5303 20.8323 10.571 21.7641 10.6523 22.6023C10.7337 23.4405 10.7744 23.8596 10.7744 23.8596C10.7744 23.8596 10.8436 24.177 10.9819 24.8118C11.1203 25.4465 11.3766 25.9592 11.751 26.3499C12.2393 26.8381 12.756 27.127 13.3013 27.2166C13.8465 27.3061 14.2575 27.3752 14.5342 27.4241C15.0387 27.4729 15.763 27.5136 16.707 27.5461C17.651 27.5787 18.591 27.6031 19.5269 27.6194C20.4627 27.6357 21.2806 27.6519 21.9805 27.6682C22.6803 27.6682 23.0303 27.6682 23.0303 27.6682C23.0303 27.6682 23.3232 27.6682 23.9092 27.6682C24.4951 27.6682 25.2275 27.6601 26.1064 27.6438C26.9854 27.6275 27.9294 27.6031 28.9385 27.5706C29.9639 27.538 30.9079 27.4892 31.7705 27.4241C32.0146 27.4078 32.3768 27.3468 32.8569 27.241C33.3371 27.1352 33.8213 26.8381 34.3096 26.3499C34.6676 25.9592 34.9199 25.4465 35.0664 24.8118C35.2129 24.177 35.2861 23.8596 35.2861 23.8596C35.2861 23.8596 35.3268 23.4405 35.4082 22.6023C35.4896 21.7641 35.5303 20.8323 35.5303 19.8069V17.9026C35.5303 16.9097 35.4896 15.9942 35.4082 15.156C35.3268 14.3178 35.2861 13.8987 35.2861 13.8987ZM26.3994 19.0745L20.4912 22.1506V15.1194L27.2295 18.635L26.3994 19.0745Z" fill="#7F7F7F"/>
</svg>
