<svg width="51" height="43" viewBox="0 0 51 43" fill="none" xmlns="http://www.w3.org/2000/svg">
<path d="M40.4127 17.5948C40.6488 17.4091 41 17.5828 41 17.8763V30.125C41 31.7122 39.6982 33 38.0938 33H12.9062C11.3018 33 10 31.7122 10 30.125V17.8823C10 17.5828 10.3451 17.4151 10.5873 17.6008C11.9436 18.643 13.7418 19.9667 19.9176 24.4049C21.1951 25.3273 23.3506 27.268 25.5 27.256C27.6615 27.274 29.8594 25.2914 31.0885 24.4049C37.2643 19.9667 39.0564 18.637 40.4127 17.5948ZM25.5 25.3333C26.9047 25.3573 28.927 23.5844 29.9441 22.8536C37.9787 17.0857 38.5902 16.5826 40.443 15.1451C40.7941 14.8755 41 14.4562 41 14.013V12.875C41 11.2878 39.6982 10 38.0938 10H12.9062C11.3018 10 10 11.2878 10 12.875V14.013C10 14.4562 10.2059 14.8695 10.557 15.1451C12.4098 16.5766 13.0213 17.0857 21.0559 22.8536C22.073 23.5844 24.0953 25.3573 25.5 25.3333Z" fill="white"/>
</svg>
