<svg width="28" height="25" viewBox="0 0 28 25" fill="none" xmlns="http://www.w3.org/2000/svg">
<path fill-rule="evenodd" clip-rule="evenodd" d="M12.2821 0.644769C12.7649 0.228712 13.38 0 14.016 0C14.6521 0 15.2672 0.228712 15.75 0.644769L24.1881 7.91079L27.5002 10.5737C27.6368 10.6835 27.7505 10.8193 27.8349 10.9733C27.9192 11.1273 27.9726 11.2964 27.9919 11.4711C28.0112 11.6458 27.996 11.8226 27.9473 11.9915C27.8986 12.1603 27.8173 12.3178 27.708 12.4551C27.5986 12.5923 27.4635 12.7066 27.3102 12.7913C27.157 12.8761 26.9886 12.9297 26.8147 12.9491C26.6409 12.9685 26.4649 12.9533 26.2969 12.9043C26.1289 12.8554 25.9721 12.7736 25.8355 12.6638L24.6702 11.7271V22.3237C24.6702 23.0335 24.3896 23.7142 23.8901 24.2161C23.3905 24.718 22.7131 25 22.0066 25H16.6796V18.3094C16.6796 17.5996 16.3989 16.9189 15.8994 16.417C15.3999 15.9151 14.7224 15.6331 14.016 15.6331C13.3096 15.6331 12.6321 15.9151 12.1326 16.417C11.6331 16.9189 11.3525 17.5996 11.3525 18.3094V25H6.02541C5.319 25 4.64152 24.718 4.14201 24.2161C3.6425 23.7142 3.36188 23.0335 3.36188 22.3237V11.7258L2.19658 12.6625C2.06092 12.7789 1.90336 12.8667 1.73327 12.9207C1.56318 12.9748 1.38402 12.9939 1.20642 12.9771C1.02882 12.9602 0.856407 12.9076 0.699409 12.8225C0.542411 12.7374 0.404031 12.6215 0.292482 12.4816C0.180934 12.3417 0.0984907 12.1808 0.0500466 12.0083C0.00160249 11.8357 -0.011855 11.6552 0.0104727 11.4774C0.0328004 11.2996 0.0904582 11.128 0.180024 10.973C0.26959 10.818 0.389237 10.6827 0.531865 10.575L3.84398 7.91213L12.2821 0.644769Z" fill="white"/>
</svg>
