<svg width="50" height="55" viewBox="0 0 50 55" fill="none" xmlns="http://www.w3.org/2000/svg">
<path d="M36.8652 13.75L34.8145 6.875H15.1855L13.1348 13.75H0V48.125H50V13.75H36.8652ZM45.8496 43.5596H4.15039V18.3154H16.0645L18.1152 11.4404H31.8848L33.9355 18.3154H45.8496V43.5596ZM25 18.3154C23.5352 18.3154 22.168 18.6198 20.8984 19.2285C19.6289 19.8014 18.5303 20.6071 17.6025 21.6455C16.6748 22.6839 15.9342 23.9014 15.3809 25.2979C14.86 26.6943 14.5996 28.1982 14.5996 29.8096C14.5996 31.3851 14.86 32.8711 15.3809 34.2676C15.9342 35.6641 16.6748 36.8815 17.6025 37.9199C18.5303 38.9583 19.6289 39.764 20.8984 40.3369C22.168 40.9456 23.5352 41.25 25 41.25C26.4648 41.25 27.832 40.9456 29.1016 40.3369C30.3711 39.764 31.4697 38.9583 32.3975 37.9199C33.3252 36.8815 34.0658 35.6641 34.6191 34.2676C35.14 32.8711 35.4004 31.3851 35.4004 29.8096C35.4004 28.1982 35.14 26.6943 34.6191 25.2979C34.0658 23.9014 33.3252 22.6839 32.3975 21.6455C31.4697 20.6071 30.3711 19.8014 29.1016 19.2285C27.832 18.6198 26.4648 18.3154 25 18.3154ZM25 36.6846C23.2422 36.6846 21.7611 36.0221 20.5566 34.6973C19.3522 33.3724 18.75 31.7432 18.75 29.8096C18.75 27.8402 19.3522 26.202 20.5566 24.895C21.7611 23.5881 23.2422 22.9346 25 22.9346C26.7578 22.9346 28.2389 23.5881 29.4434 24.895C30.6478 26.202 31.25 27.8402 31.25 29.8096C31.25 31.7432 30.6478 33.3724 29.4434 34.6973C28.2389 36.0221 26.7578 36.6846 25 36.6846Z" fill="#F18F01"/>
</svg>
