<svg width="45" height="45" viewBox="0 0 45 45" fill="none" xmlns="http://www.w3.org/2000/svg">
<path d="M22.5 12.2461C24.1764 12.2461 25.2669 12.2542 25.7715 12.2705C26.276 12.2868 26.862 12.3112 27.5293 12.3438C28.1641 12.36 28.6564 12.4089 29.0063 12.4902C29.3563 12.5716 29.6452 12.653 29.873 12.7344C30.166 12.8483 30.4264 12.9826 30.6543 13.1372C30.8822 13.2918 31.0938 13.4668 31.2891 13.6621C31.5007 13.8737 31.6838 14.0934 31.8384 14.3213C31.993 14.5492 32.1191 14.8014 32.2168 15.0781C32.3145 15.3223 32.404 15.6193 32.4854 15.9692C32.5667 16.3192 32.6237 16.8034 32.6562 17.4219C32.6725 18.1055 32.6929 18.6995 32.7173 19.2041C32.7417 19.7087 32.7539 20.8073 32.7539 22.5C32.7539 24.1764 32.7458 25.2669 32.7295 25.7715C32.7132 26.276 32.6888 26.862 32.6562 27.5293C32.64 28.1641 32.5911 28.6564 32.5098 29.0063C32.4284 29.3563 32.347 29.6452 32.2656 29.873C32.1517 30.166 32.0174 30.4264 31.8628 30.6543C31.7082 30.8822 31.5332 31.0938 31.3379 31.2891C31.1263 31.5007 30.9066 31.6838 30.6787 31.8384C30.4508 31.993 30.1986 32.1191 29.9219 32.2168C29.6777 32.3145 29.3807 32.404 29.0308 32.4854C28.6808 32.5667 28.1966 32.6237 27.5781 32.6562C26.8945 32.6725 26.3005 32.6929 25.7959 32.7173C25.2913 32.7417 24.1927 32.7539 22.5 32.7539C20.8236 32.7539 19.7331 32.7458 19.2285 32.7295C18.724 32.7132 18.138 32.6888 17.4707 32.6562C16.8359 32.64 16.3436 32.5911 15.9937 32.5098C15.6437 32.4284 15.3548 32.347 15.127 32.2656C14.834 32.1517 14.5736 32.0174 14.3457 31.8628C14.1178 31.7082 13.9062 31.5332 13.7109 31.3379C13.4993 31.1263 13.3162 30.9066 13.1616 30.6787C13.007 30.4508 12.8809 30.1986 12.7832 29.9219C12.6855 29.6777 12.596 29.3807 12.5146 29.0308C12.4333 28.6808 12.3763 28.1966 12.3438 27.5781C12.3275 26.8945 12.3071 26.3005 12.2827 25.7959C12.2583 25.2913 12.2461 24.1927 12.2461 22.5C12.2461 20.8236 12.2542 19.7331 12.2705 19.2285C12.2868 18.724 12.3112 18.138 12.3438 17.4707C12.36 16.8359 12.4089 16.3436 12.4902 15.9937C12.5716 15.6437 12.653 15.3548 12.7344 15.127C12.8483 14.834 12.9826 14.5736 13.1372 14.3457C13.2918 14.1178 13.4668 13.9062 13.6621 13.7109C13.8737 13.4993 14.0934 13.3162 14.3213 13.1616C14.5492 13.007 14.8014 12.8809 15.0781 12.7832C15.3223 12.6855 15.6193 12.596 15.9692 12.5146C16.3192 12.4333 16.8034 12.3763 17.4219 12.3438C18.1055 12.3275 18.6995 12.3071 19.2041 12.2827C19.7087 12.2583 20.8073 12.2461 22.5 12.2461ZM22.5 10C20.791 10 19.6761 10.0081 19.1553 10.0244C18.6344 10.0407 18.0404 10.0651 17.373 10.0977C16.6895 10.1139 16.1076 10.1709 15.6274 10.2686C15.1473 10.3662 14.7201 10.4883 14.3457 10.6348C13.9388 10.7975 13.5482 10.9969 13.1738 11.2329C12.7995 11.4689 12.4414 11.7578 12.0996 12.0996C11.7578 12.4414 11.473 12.7954 11.2451 13.1616C11.0173 13.5278 10.8138 13.9225 10.6348 14.3457C10.4883 14.7363 10.3703 15.1676 10.2808 15.6396C10.1912 16.1117 10.1302 16.6895 10.0977 17.373C10.0814 18.0241 10.061 18.6141 10.0366 19.1431C10.0122 19.672 10 20.791 10 22.5C10 24.209 10.0081 25.3239 10.0244 25.8447C10.0407 26.3656 10.0651 26.9596 10.0977 27.627C10.1139 28.3105 10.1709 28.8924 10.2686 29.3726C10.3662 29.8527 10.4883 30.2799 10.6348 30.6543C10.7975 31.0612 10.9969 31.4518 11.2329 31.8262C11.4689 32.2005 11.7578 32.5586 12.0996 32.9004C12.4414 33.2422 12.7954 33.527 13.1616 33.7549C13.5278 33.9827 13.9225 34.1862 14.3457 34.3652C14.7363 34.5117 15.1676 34.6297 15.6396 34.7192C16.1117 34.8088 16.6895 34.8698 17.373 34.9023C18.0241 34.9186 18.6141 34.939 19.1431 34.9634C19.672 34.9878 20.791 35 22.5 35C24.209 35 25.3239 34.9919 25.8447 34.9756C26.3656 34.9593 26.9596 34.9349 27.627 34.9023C28.3105 34.8861 28.8924 34.8291 29.3726 34.7314C29.8527 34.6338 30.2799 34.5117 30.6543 34.3652C31.0612 34.2025 31.4518 34.0031 31.8262 33.7671C32.2005 33.5311 32.5586 33.2422 32.9004 32.9004C33.2422 32.5586 33.527 32.2046 33.7549 31.8384C33.9827 31.4722 34.1862 31.0775 34.3652 30.6543C34.5117 30.2637 34.6297 29.8324 34.7192 29.3604C34.8088 28.8883 34.8698 28.3105 34.9023 27.627C34.9186 26.9759 34.939 26.3859 34.9634 25.8569C34.9878 25.328 35 24.209 35 22.5C35 20.791 34.9919 19.6761 34.9756 19.1553C34.9593 18.6344 34.9349 18.0404 34.9023 17.373C34.8861 16.6895 34.8291 16.1076 34.7314 15.6274C34.6338 15.1473 34.5117 14.7201 34.3652 14.3457C34.2025 13.9388 34.0031 13.5482 33.7671 13.1738C33.5311 12.7995 33.2422 12.4414 32.9004 12.0996C32.5586 11.7578 32.2046 11.473 31.8384 11.2451C31.4722 11.0173 31.0775 10.8138 30.6543 10.6348C30.2637 10.4883 29.8324 10.3703 29.3604 10.2808C28.8883 10.1912 28.3105 10.1302 27.627 10.0977C26.9759 10.0814 26.3859 10.061 25.8569 10.0366C25.328 10.0122 24.209 10 22.5 10ZM22.5 16.0547C21.6048 16.0547 20.7666 16.2256 19.9854 16.5674C19.2041 16.8929 18.5205 17.3486 17.9346 17.9346C17.3486 18.5205 16.8929 19.2041 16.5674 19.9854C16.2256 20.7666 16.0547 21.6048 16.0547 22.5C16.0547 23.3952 16.2256 24.2334 16.5674 25.0146C16.8929 25.7959 17.3486 26.4795 17.9346 27.0654C18.5205 27.6514 19.2041 28.1071 19.9854 28.4326C20.7666 28.7744 21.6048 28.9453 22.5 28.9453C23.3952 28.9453 24.2334 28.7744 25.0146 28.4326C25.7959 28.1071 26.4795 27.6514 27.0654 27.0654C27.6514 26.4795 28.1071 25.7959 28.4326 25.0146C28.7744 24.2334 28.9453 23.3952 28.9453 22.5C28.9453 21.6048 28.7744 20.7666 28.4326 19.9854C28.1071 19.2041 27.6514 18.5205 27.0654 17.9346C26.4795 17.3486 25.7959 16.8929 25.0146 16.5674C24.2334 16.2256 23.3952 16.0547 22.5 16.0547ZM22.5 26.6992C21.3607 26.6992 20.376 26.2882 19.5459 25.4663C18.7158 24.6444 18.3008 23.6556 18.3008 22.5C18.3008 21.3607 18.7118 20.376 19.5337 19.5459C20.3556 18.7158 21.3444 18.3008 22.5 18.3008C23.6393 18.3008 24.624 18.7118 25.4541 19.5337C26.2842 20.3556 26.6992 21.3444 26.6992 22.5C26.6992 23.6393 26.2882 24.624 25.4663 25.4541C24.6444 26.2842 23.6556 26.6992 22.5 26.6992ZM30.6543 15.8105C30.6543 16.2174 30.516 16.5715 30.2393 16.8726C29.9626 17.1737 29.6126 17.3242 29.1895 17.3242C28.7826 17.3242 28.4285 17.1777 28.1274 16.8848C27.8263 16.5918 27.6758 16.2337 27.6758 15.8105C27.6758 15.4036 27.8223 15.0578 28.1152 14.7729C28.4082 14.4881 28.7663 14.3457 29.1895 14.3457C29.5964 14.3457 29.9422 14.484 30.2271 14.7607C30.5119 15.0374 30.6543 15.3874 30.6543 15.8105Z" fill="#7F7F7F"/>
</svg>
