<svg width="32" height="33" viewBox="0 0 32 33" fill="none" xmlns="http://www.w3.org/2000/svg">
<rect width="32" height="32" transform="matrix(1 0 0 -1 0 32.1062)" fill="white"/>
<path d="M4 9.44995C2.875 9.44995 1.92708 9.06454 1.15625 8.2937C0.385417 7.52287 0 6.57495 0 5.44995C0 4.30412 0.385417 3.35099 1.15625 2.59058C1.92708 1.83016 2.875 1.44995 4 1.44995C5.125 1.44995 6.07292 1.83016 6.84375 2.59058C7.61458 3.35099 8 4.30412 8 5.44995C8 6.57495 7.61458 7.52287 6.84375 8.2937C6.07292 9.06454 5.125 9.44995 4 9.44995ZM4 4.1062C3.60417 4.1062 3.28125 4.22599 3.03125 4.46558C2.78125 4.70516 2.65625 5.03329 2.65625 5.44995C2.65625 5.84579 2.78125 6.16349 3.03125 6.40308C3.28125 6.64266 3.60417 6.76245 4 6.76245C4.39583 6.76245 4.71875 6.64266 4.96875 6.40308C5.21875 6.16349 5.34375 5.84579 5.34375 5.44995C5.34375 5.03329 5.21875 4.70516 4.96875 4.46558C4.71875 4.22599 4.39583 4.1062 4 4.1062ZM4 20.1062C2.875 20.1062 1.92708 19.7208 1.15625 18.95C0.385417 18.1791 0 17.2312 0 16.1062C0 14.9812 0.385417 14.0333 1.15625 13.2625C1.92708 12.4916 2.875 12.1062 4 12.1062C5.125 12.1062 6.07292 12.4916 6.84375 13.2625C7.61458 14.0333 8 14.9812 8 16.1062C8 17.2312 7.61458 18.1791 6.84375 18.95C6.07292 19.7208 5.125 20.1062 4 20.1062ZM4 14.7625C3.60417 14.7625 3.28125 14.8875 3.03125 15.1375C2.78125 15.3875 2.65625 15.7104 2.65625 16.1062C2.65625 16.502 2.78125 16.825 3.03125 17.075C3.28125 17.325 3.60417 17.45 4 17.45C4.39583 17.45 4.71875 17.325 4.96875 17.075C5.21875 16.825 5.34375 16.502 5.34375 16.1062C5.34375 15.7104 5.21875 15.3875 4.96875 15.1375C4.71875 14.8875 4.39583 14.7625 4 14.7625ZM4 30.7625C2.875 30.7625 1.92708 30.3822 1.15625 29.6218C0.385417 28.8614 0 27.9083 0 26.7625C0 25.6375 0.385417 24.6895 1.15625 23.9187C1.92708 23.1479 2.875 22.7625 4 22.7625C5.125 22.7625 6.07292 23.1479 6.84375 23.9187C7.61458 24.6895 8 25.6375 8 26.7625C8 27.9083 7.61458 28.8614 6.84375 29.6218C6.07292 30.3822 5.125 30.7625 4 30.7625ZM4 25.45C3.60417 25.45 3.28125 25.5697 3.03125 25.8093C2.78125 26.0489 2.65625 26.3666 2.65625 26.7625C2.65625 27.1791 2.78125 27.5072 3.03125 27.7468C3.28125 27.9864 3.60417 28.1062 4 28.1062C4.39583 28.1062 4.71875 27.9864 4.96875 27.7468C5.21875 27.5072 5.34375 27.1791 5.34375 26.7625C5.34375 26.3666 5.21875 26.0489 4.96875 25.8093C4.71875 25.5697 4.39583 25.45 4 25.45ZM32 4.1062H10.6562V6.76245H32V4.1062ZM32 14.7625H10.6562V17.45H32V14.7625ZM32 25.45H10.6562V28.1062H32V25.45Z" fill="#475C6A"/>
</svg>
