<svg width="32" height="33" viewBox="0 0 32 33" fill="none" xmlns="http://www.w3.org/2000/svg">
<g clip-path="url(#clip0_15_790)">
<path d="M16 0.106201C13.7917 0.106201 11.7188 0.522867 9.78125 1.3562C7.84375 2.21037 6.15104 3.36141 4.70312 4.80933C3.25521 6.25724 2.10417 7.94995 1.25 9.88745C0.416667 11.825 0 13.8979 0 16.1062C0 18.3145 0.416667 20.3875 1.25 22.325C2.10417 24.2625 3.25521 25.9552 4.70312 27.4031C6.15104 28.851 7.84375 30.002 9.78125 30.8562C11.7188 31.6895 13.7917 32.1062 16 32.1062C18.2083 32.1062 20.2812 31.6895 22.2188 30.8562C24.1562 30.002 25.849 28.851 27.2969 27.4031C28.7448 25.9552 29.8958 24.2625 30.75 22.325C31.5833 20.3875 32 18.3145 32 16.1062C32 13.8979 31.5833 11.825 30.75 9.88745C29.8958 7.94995 28.7448 6.25724 27.2969 4.80933C25.849 3.36141 24.1562 2.21037 22.2188 1.3562C20.2812 0.522867 18.2083 0.106201 16 0.106201ZM6.53125 6.76245H12C12.3958 6.76245 12.7188 6.88745 12.9688 7.13745C13.2188 7.38745 13.3438 7.71037 13.3438 8.1062C13.3438 8.50204 13.2188 8.82495 12.9688 9.07495C12.7188 9.32495 12.3958 9.44995 12 9.44995H7.34375C6.40625 9.44995 5.61458 9.77287 4.96875 10.4187C4.32292 11.0645 4 11.8458 4 12.7625C4 13.7 4.32292 14.4916 4.96875 15.1375C5.61458 15.7833 6.40625 16.1062 7.34375 16.1062H8C8.39583 16.1062 8.71875 16.226 8.96875 16.4656C9.21875 16.7052 9.34375 17.0333 9.34375 17.45C9.34375 17.8458 9.21875 18.1635 8.96875 18.4031C8.71875 18.6427 8.39583 18.7625 8 18.7625H2.9375C2.875 18.3666 2.8125 17.9395 2.75 17.4812C2.6875 17.0229 2.65625 16.5645 2.65625 16.1062C2.65625 15.2104 2.75 14.3354 2.9375 13.4812C3.10417 12.6062 3.35417 11.7729 3.6875 10.9812C4.02083 10.1895 4.42708 9.43954 4.90625 8.7312C5.38542 8.02287 5.92708 7.36662 6.53125 6.76245ZM3.71875 21.45H8C9.125 21.45 10.0729 21.0645 10.8438 20.2937C11.6146 19.5229 12 18.575 12 17.45C12 16.3041 11.6146 15.351 10.8438 14.5906C10.0729 13.8302 9.125 13.45 8 13.45H7.34375C7.13542 13.45 6.96875 13.3875 6.84375 13.2625C6.71875 13.1375 6.65625 12.9708 6.65625 12.7625C6.65625 12.575 6.71875 12.4187 6.84375 12.2937C6.96875 12.1687 7.13542 12.1062 7.34375 12.1062H12C13.125 12.1062 14.0729 11.7208 14.8438 10.95C15.6146 10.1791 16 9.2312 16 8.1062C16 6.9812 15.6146 6.03329 14.8438 5.26245C14.0729 4.49162 13.125 4.1062 12 4.1062H10.2812C11.1354 3.71037 12.0365 3.38745 12.9844 3.13745C13.9323 2.88745 14.9375 2.76245 16 2.76245C17.375 2.76245 18.6875 2.96037 19.9375 3.3562C21.1667 3.75204 22.3125 4.30412 23.375 5.01245C24.4375 5.72079 25.3854 6.56454 26.2188 7.5437C27.0521 8.52287 27.7396 9.59579 28.2812 10.7625H22.6562C21.5312 10.7625 20.5833 11.1479 19.8125 11.9187C19.0417 12.6895 18.6562 13.6375 18.6562 14.7625C18.6562 15.9083 19.0417 16.8614 19.8125 17.6218C20.5833 18.3822 21.5312 18.7625 22.6562 18.7625H23.3438C23.5312 18.7625 23.6875 18.825 23.8125 18.95C23.9375 19.075 24 19.2416 24 19.45C24 19.6375 23.9375 19.7937 23.8125 19.9187C23.6875 20.0437 23.5312 20.1062 23.3438 20.1062H17.3438C16.1979 20.1062 15.2448 20.4916 14.4844 21.2625C13.724 22.0333 13.3438 22.9812 13.3438 24.1062C13.3438 25.2312 13.724 26.1791 14.4844 26.95C15.2448 27.7208 16.1979 28.1062 17.3438 28.1062H21.7188C20.8646 28.502 19.9479 28.825 18.9688 29.075C17.9896 29.325 17 29.45 16 29.45C14.625 29.45 13.3125 29.252 12.0625 28.8562C10.8333 28.4604 9.6875 27.9083 8.625 27.2C7.5625 26.4916 6.61458 25.6479 5.78125 24.6687C4.94792 23.6895 4.26042 22.6166 3.71875 21.45ZM25.4688 25.45H17.3438C16.9271 25.45 16.599 25.325 16.3594 25.075C16.1198 24.825 16 24.502 16 24.1062C16 23.7104 16.1198 23.3875 16.3594 23.1375C16.599 22.8875 16.9271 22.7625 17.3438 22.7625H23.3438C24.2604 22.7625 25.0417 22.4395 25.6875 21.7937C26.3333 21.1479 26.6562 20.3666 26.6562 19.45C26.6562 18.5125 26.3333 17.7208 25.6875 17.075C25.0417 16.4291 24.2604 16.1062 23.3438 16.1062H22.6562C22.2604 16.1062 21.9427 15.9864 21.7031 15.7468C21.4635 15.5072 21.3438 15.1791 21.3438 14.7625C21.3438 14.3666 21.4635 14.0489 21.7031 13.8093C21.9427 13.5697 22.2604 13.45 22.6562 13.45H29.0625C29.125 13.8458 29.1875 14.2729 29.25 14.7312C29.3125 15.1895 29.3438 15.6479 29.3438 16.1062C29.3438 17.002 29.25 17.877 29.0625 18.7312C28.8958 19.6062 28.6458 20.4395 28.3125 21.2312C27.9792 22.0229 27.5729 22.7729 27.0938 23.4812C26.6146 24.1895 26.0729 24.8458 25.4688 25.45Z" fill="white"/>
</g>
<defs>
<clipPath id="clip0_15_790">
<rect width="32" height="32" fill="white" transform="matrix(1 0 0 -1 0 32.1062)"/>
</clipPath>
</defs>
</svg>
