<svg width="72" height="72" viewBox="0 0 72 72" fill="none" xmlns="http://www.w3.org/2000/svg">
<rect x="9.21509" y="14.4048" width="43" height="43" rx="21.5" stroke="#1C3747" stroke-opacity="0.9" stroke-width="2"/>
<g clip-path="url(#clip0_20_1234)">
<path d="M30.7151 25.6509C32.3915 25.6509 33.482 25.659 33.9866 25.6753C34.4911 25.6916 35.0771 25.716 35.7444 25.7485C36.3792 25.7648 36.8715 25.8136 37.2214 25.895C37.5714 25.9764 37.8603 26.0578 38.0881 26.1392C38.3811 26.2531 38.6415 26.3874 38.8694 26.542C39.0972 26.6966 39.3088 26.8716 39.5042 27.0669C39.7157 27.2785 39.8988 27.4982 40.0535 27.7261C40.2081 27.9539 40.3342 28.2062 40.4319 28.4829C40.5295 28.7271 40.6191 29.0241 40.7004 29.374C40.7818 29.724 40.8388 30.2082 40.8713 30.8267C40.8876 31.5103 40.908 32.1043 40.9324 32.6089C40.9568 33.1134 40.969 34.2121 40.969 35.9048C40.969 37.5812 40.9609 38.6717 40.9446 39.1763C40.9283 39.6808 40.9039 40.2668 40.8713 40.9341C40.8551 41.5688 40.8062 42.0612 40.7249 42.4111C40.6435 42.7611 40.5621 43.05 40.4807 43.2778C40.3668 43.5708 40.2325 43.8312 40.0779 44.0591C39.9233 44.2869 39.7483 44.4985 39.553 44.6938C39.3414 44.9054 39.1217 45.0885 38.8938 45.2432C38.6659 45.3978 38.4137 45.5239 38.137 45.6216C37.8928 45.7192 37.5958 45.8088 37.2458 45.8901C36.8959 45.9715 36.4117 46.0285 35.7932 46.061C35.1096 46.0773 34.5155 46.0977 34.011 46.1221C33.5064 46.1465 32.4078 46.1587 30.7151 46.1587C29.0387 46.1587 27.9482 46.1506 27.4436 46.1343C26.939 46.118 26.3531 46.0936 25.6858 46.061C25.051 46.0448 24.5587 45.9959 24.2087 45.9146C23.8588 45.8332 23.5699 45.7518 23.342 45.6704C23.0491 45.5565 22.7887 45.4222 22.5608 45.2676C22.3329 45.113 22.1213 44.938 21.926 44.7427C21.7144 44.5311 21.5313 44.3114 21.3767 44.0835C21.2221 43.8556 21.0959 43.6034 20.9983 43.3267C20.9006 43.0825 20.8111 42.7855 20.7297 42.4355C20.6484 42.0856 20.5914 41.6014 20.5588 40.9829C20.5426 40.2993 20.5222 39.7052 20.4978 39.2007C20.4734 38.6961 20.4612 37.5975 20.4612 35.9048C20.4612 34.2284 20.4693 33.1379 20.4856 32.6333C20.5019 32.1287 20.5263 31.5428 20.5588 30.8755C20.5751 30.2407 20.6239 29.7484 20.7053 29.3984C20.7867 29.0485 20.8681 28.7596 20.9495 28.5317C21.0634 28.2388 21.1977 27.9784 21.3523 27.7505C21.5069 27.5226 21.6819 27.311 21.8772 27.1157C22.0888 26.9041 22.3085 26.721 22.5364 26.5664C22.7642 26.4118 23.0165 26.2856 23.2932 26.188C23.5374 26.0903 23.8344 26.0008 24.1843 25.9194C24.5343 25.8381 25.0185 25.7811 25.637 25.7485C26.3206 25.7323 26.9146 25.7119 27.4192 25.6875C27.9237 25.6631 29.0224 25.6509 30.7151 25.6509ZM30.7151 23.4048C29.0061 23.4048 27.8912 23.4129 27.3704 23.4292C26.8495 23.4455 26.2555 23.4699 25.5881 23.5024C24.9045 23.5187 24.3227 23.5757 23.8425 23.6733C23.3624 23.771 22.9351 23.8931 22.5608 24.0396C22.1539 24.2023 21.7633 24.4017 21.3889 24.6377C21.0146 24.8737 20.6565 25.1626 20.3147 25.5044C19.9729 25.8462 19.6881 26.2002 19.4602 26.5664C19.2323 26.9326 19.0289 27.3273 18.8499 27.7505C18.7034 28.1411 18.5854 28.5724 18.4958 29.0444C18.4063 29.5164 18.3453 30.0942 18.3127 30.7778C18.2965 31.4289 18.2761 32.0189 18.2517 32.5479C18.2273 33.0768 18.2151 34.1958 18.2151 35.9048C18.2151 37.6138 18.2232 38.7287 18.2395 39.2495C18.2558 39.7703 18.2802 40.3644 18.3127 41.0317C18.329 41.7153 18.386 42.2972 18.4836 42.7773C18.5813 43.2575 18.7034 43.6847 18.8499 44.0591C19.0126 44.466 19.212 44.8566 19.448 45.231C19.684 45.6053 19.9729 45.9634 20.3147 46.3052C20.6565 46.647 21.0105 46.9318 21.3767 47.1597C21.7429 47.3875 22.1376 47.591 22.5608 47.77C22.9514 47.9165 23.3827 48.0345 23.8547 48.124C24.3267 48.2135 24.9045 48.2746 25.5881 48.3071C26.2392 48.3234 26.8292 48.3438 27.3582 48.3682C27.8871 48.3926 29.0061 48.4048 30.7151 48.4048C32.4241 48.4048 33.539 48.3966 34.0598 48.3804C34.5806 48.3641 35.1747 48.3397 35.842 48.3071C36.5256 48.2909 37.1075 48.2339 37.5876 48.1362C38.0678 48.0386 38.495 47.9165 38.8694 47.77C39.2763 47.6073 39.6669 47.4079 40.0413 47.1719C40.4156 46.9359 40.7737 46.647 41.1155 46.3052C41.4573 45.9634 41.7421 45.6094 41.97 45.2432C42.1978 44.877 42.4013 44.4823 42.5803 44.0591C42.7268 43.6685 42.8448 43.2371 42.9343 42.7651C43.0238 42.2931 43.0849 41.7153 43.1174 41.0317C43.1337 40.3807 43.1541 39.7907 43.1785 39.2617C43.2029 38.7327 43.2151 37.6138 43.2151 35.9048C43.2151 34.1958 43.2069 33.0809 43.1907 32.5601C43.1744 32.0392 43.15 31.4452 43.1174 30.7778C43.1012 30.0942 43.0442 29.5124 42.9465 29.0322C42.8489 28.5521 42.7268 28.1248 42.5803 27.7505C42.4176 27.3436 42.2182 26.953 41.9822 26.5786C41.7462 26.2043 41.4573 25.8462 41.1155 25.5044C40.7737 25.1626 40.4197 24.8778 40.0535 24.6499C39.6873 24.422 39.2926 24.2186 38.8694 24.0396C38.4788 23.8931 38.0474 23.7751 37.5754 23.6855C37.1034 23.596 36.5256 23.535 35.842 23.5024C35.191 23.4862 34.601 23.4658 34.072 23.4414C33.543 23.417 32.4241 23.4048 30.7151 23.4048ZM30.7151 29.4595C29.8199 29.4595 28.9817 29.6304 28.2004 29.9722C27.4192 30.2977 26.7356 30.7534 26.1497 31.3394C25.5637 31.9253 25.108 32.6089 24.7825 33.3901C24.4407 34.1714 24.2698 35.0096 24.2698 35.9048C24.2698 36.8 24.4407 37.6382 24.7825 38.4194C25.108 39.2007 25.5637 39.8843 26.1497 40.4702C26.7356 41.0562 27.4192 41.5119 28.2004 41.8374C28.9817 42.1792 29.8199 42.3501 30.7151 42.3501C31.6103 42.3501 32.4485 42.1792 33.2297 41.8374C34.011 41.5119 34.6946 41.0562 35.2805 40.4702C35.8665 39.8843 36.3222 39.2007 36.6477 38.4194C36.9895 37.6382 37.1604 36.8 37.1604 35.9048C37.1604 35.0096 36.9895 34.1714 36.6477 33.3901C36.3222 32.6089 35.8665 31.9253 35.2805 31.3394C34.6946 30.7534 34.011 30.2977 33.2297 29.9722C32.4485 29.6304 31.6103 29.4595 30.7151 29.4595ZM30.7151 40.104C29.5758 40.104 28.5911 39.693 27.761 38.8711C26.9309 38.0492 26.5159 37.0604 26.5159 35.9048C26.5159 34.7655 26.9268 33.7808 27.7488 32.9507C28.5707 32.1206 29.5595 31.7056 30.7151 31.7056C31.8544 31.7056 32.8391 32.1165 33.6692 32.9385C34.4993 33.7604 34.9143 34.7492 34.9143 35.9048C34.9143 37.0441 34.5033 38.0288 33.6814 38.8589C32.8595 39.689 31.8707 40.104 30.7151 40.104ZM38.8694 29.2153C38.8694 29.6222 38.731 29.9762 38.4543 30.2773C38.1777 30.5785 37.8277 30.729 37.4045 30.729C36.9976 30.729 36.6436 30.5825 36.3425 30.2896C36.0414 29.9966 35.8909 29.6385 35.8909 29.2153C35.8909 28.8084 36.0374 28.4626 36.3303 28.1777C36.6233 27.8929 36.9814 27.7505 37.4045 27.7505C37.8114 27.7505 38.1573 27.8888 38.4421 28.1655C38.727 28.4422 38.8694 28.7922 38.8694 29.2153Z" fill="#1C3747" fill-opacity="0.9"/>
</g>
<defs>
<clipPath id="clip0_20_1234">
<rect width="25" height="25" fill="white" transform="matrix(1 0 0 -1 18.2151 48.4048)"/>
</clipPath>
</defs>
</svg>
