<svg width="56" height="57" viewBox="0 0 56 57" fill="none" xmlns="http://www.w3.org/2000/svg">
<g clip-path="url(#clip0_18_895)">
<path d="M47.6875 8.2002C46.375 6.8877 44.9531 5.72103 43.4219 4.7002C41.9271 3.71582 40.3411 2.87728 38.6641 2.18457C36.987 1.49186 35.2552 0.981445 33.4688 0.65332C31.6823 0.288738 29.8594 0.106445 28 0.106445C24.1719 0.106445 20.5807 0.835613 17.2266 2.29395C13.8359 3.75228 10.8828 5.73926 8.36719 8.25488C5.85156 10.7705 3.86458 13.7054 2.40625 17.0596C0.947917 20.4502 0.21875 24.0596 0.21875 27.8877C0.21875 30.2939 0.53776 32.6729 1.17578 35.0244C1.8138 37.376 2.73438 39.6273 3.9375 41.7783L0 56.1064L14.7656 52.2783C16.7708 53.3721 18.8854 54.2106 21.1094 54.7939C23.3333 55.3773 25.6302 55.6689 28 55.6689C31.8281 55.6689 35.4193 54.9398 38.7734 53.4814C42.1641 52.0231 45.1172 50.0361 47.6328 47.5205C50.1484 45.0049 52.1354 42.07 53.5938 38.7158C55.0521 35.3252 55.7812 31.7158 55.7812 27.8877C55.7812 26.0283 55.599 24.2054 55.2344 22.4189C54.9062 20.6325 54.3958 18.9007 53.7031 17.2236C53.0104 15.5466 52.1719 13.9606 51.1875 12.4658C50.1667 10.9346 49 9.5127 47.6875 8.2002ZM28 50.9658C25.9219 50.9658 23.8893 50.6924 21.9023 50.1455C19.9154 49.5986 18.0469 48.7783 16.2969 47.6846L15.4219 47.2471L6.67188 49.5439L8.96875 41.0127L8.42188 40.1377C7.29167 38.2783 6.42578 36.3187 5.82422 34.2588C5.22266 32.1989 4.92188 30.0752 4.92188 27.8877C4.92188 24.6794 5.52344 21.6716 6.72656 18.8643C7.96615 16.057 9.625 13.6143 11.7031 11.5361C13.7812 9.45801 16.224 7.81738 19.0312 6.61426C21.8385 5.41113 24.8281 4.80957 28 4.80957C29.5312 4.80957 31.0443 4.9554 32.5391 5.24707C33.9974 5.53874 35.4193 5.97624 36.8047 6.55957C38.1901 7.1429 39.5026 7.85384 40.7422 8.69238C42.0182 9.53093 43.2031 10.4971 44.2969 11.5908C45.3906 12.6846 46.3568 13.8695 47.1953 15.1455C48.0339 16.3851 48.7448 17.6976 49.3281 19.083C49.9115 20.4684 50.349 21.8903 50.6406 23.3486C50.9323 24.8434 51.0781 26.3564 51.0781 27.8877C51.0781 31.0596 50.4766 34.0492 49.2734 36.8564C48.0339 39.6637 46.375 42.1064 44.2969 44.1846C42.2188 46.2627 39.776 47.9215 36.9688 49.1611C34.1615 50.3643 31.1719 50.9658 28 50.9658ZM40.6875 33.6846C40.3229 33.5387 39.5117 33.1468 38.2539 32.5088C36.9961 31.8708 36.2031 31.4971 35.875 31.3877C35.6198 31.2783 35.3555 31.2236 35.082 31.2236C34.8086 31.2236 34.5625 31.3877 34.3438 31.7158C34.125 32.0804 33.7604 32.5726 33.25 33.1924C32.7396 33.8122 32.375 34.2314 32.1562 34.4502C31.9375 34.6689 31.7279 34.7965 31.5273 34.833C31.3268 34.8695 31.026 34.8148 30.625 34.6689C30.2969 34.5231 29.6315 34.2041 28.6289 33.7119C27.6263 33.2197 26.4323 32.3721 25.0469 31.1689C24.0625 30.2939 23.2331 29.3734 22.5586 28.4072C21.8841 27.4411 21.4375 26.7575 21.2188 26.3564C21 26.0283 20.9544 25.764 21.082 25.5635C21.2096 25.363 21.3646 25.1533 21.5469 24.9346C21.6927 24.8252 21.8477 24.652 22.0117 24.415C22.1758 24.1781 22.349 23.9502 22.5312 23.7314C22.75 23.5856 22.9049 23.4216 22.9961 23.2393C23.0872 23.057 23.1875 22.8564 23.2969 22.6377C23.4062 22.4189 23.4427 22.2093 23.4062 22.0088C23.3698 21.8083 23.2969 21.6169 23.1875 21.4346C23.151 21.2887 22.8685 20.5596 22.3398 19.2471C21.8112 17.9346 21.401 16.9502 21.1094 16.2939C20.7812 15.6012 20.4805 15.2275 20.207 15.1729C19.9336 15.1182 19.6875 15.0908 19.4688 15.0908C19.3229 15.0908 19.1224 15.0908 18.8672 15.0908C18.612 15.0908 18.375 15.0908 18.1562 15.0908C17.9375 15.0908 17.6549 15.1364 17.3086 15.2275C16.9622 15.3187 16.625 15.5283 16.2969 15.8564C15.9688 16.221 15.4857 16.8499 14.8477 17.7432C14.2096 18.6364 13.8906 19.9398 13.8906 21.6533C13.8906 23.4033 14.319 24.9893 15.1758 26.4111C16.0326 27.833 16.5521 28.6533 16.7344 28.8721C16.8073 28.9814 17.1536 29.4372 17.7734 30.2393C18.3568 31.0778 19.1589 32.0439 20.1797 33.1377C21.2005 34.2314 22.4219 35.3434 23.8438 36.4736C25.2656 37.6403 26.8333 38.6064 28.5469 39.3721C29.349 39.7002 30.0781 39.9736 30.7344 40.1924C31.3906 40.4111 31.974 40.6117 32.4844 40.7939C33.3594 41.0492 34.1523 41.1768 34.8633 41.1768C35.5742 41.1768 36.2396 41.1585 36.8594 41.1221C37.5521 41.0127 38.4362 40.6299 39.5117 39.9736C40.5872 39.3174 41.2708 38.57 41.5625 37.7314C41.8906 36.9658 42.0729 36.2731 42.1094 35.6533C42.1458 35.0335 42.1094 34.6325 42 34.4502C41.8906 34.3408 41.7266 34.2314 41.5078 34.1221C41.2891 34.0127 41.0156 33.8669 40.6875 33.6846Z" fill="#353535"/>
</g>
<defs>
<clipPath id="clip0_18_895">
<rect width="56" height="56" fill="white" transform="matrix(1 0 0 -1 0 56.1064)"/>
</clipPath>
</defs>
</svg>
