<svg width="56" height="57" viewBox="0 0 56 57" fill="none" xmlns="http://www.w3.org/2000/svg">
<g clip-path="url(#clip0_18_901)">
<path d="M51.9532 4.48146L2.18757 23.9502C2.18757 23.9502 1.79564 24.1416 1.01179 24.5244C0.227934 24.9072 -0.109305 25.4815 6.97523e-05 26.2471C0.109445 27.0127 0.483143 27.5687 1.12116 27.9151C1.75918 28.2614 2.07819 28.4346 2.07819 28.4346L14.4376 32.5908C14.6928 33.3929 15.0391 34.5414 15.4766 36.0361C15.9141 37.5674 16.3699 39.126 16.8438 40.7119C17.3178 42.2979 17.737 43.7653 18.1016 45.1143C18.5027 46.4632 18.7761 47.3929 18.9219 47.9033C19.2501 48.9971 19.5235 49.708 19.7423 50.0361C19.961 50.3643 20.1615 50.5648 20.3438 50.6377C20.3803 50.6377 20.4258 50.6377 20.4805 50.6377C20.5352 50.6377 20.5626 50.6377 20.5626 50.6377C21.0001 50.6742 21.3647 50.6104 21.6563 50.4463C21.948 50.2822 22.0938 50.2002 22.0938 50.2002L29.9688 42.4346L42.4376 51.9502C44.1147 52.6429 45.3178 52.5427 46.0469 51.6494C46.7761 50.7562 47.1407 50.3096 47.1407 50.3096L56.0001 5.68458C56.0001 4.22625 55.3256 3.66114 53.9766 3.98927C52.6277 4.31739 51.9532 4.48146 51.9532 4.48146ZM45.7188 14.6533C45.5001 14.8356 44.2423 15.9841 41.9454 18.0986C39.6485 20.1768 37.1147 22.4828 34.3438 25.0166C31.573 27.5505 28.9662 29.9476 26.5235 32.208C24.0808 34.432 22.6042 35.7992 22.0938 36.3096L20.8907 46.5908C20.8542 47.0648 20.6628 47.3109 20.3165 47.3291C19.9701 47.3473 19.6876 47.1742 19.4688 46.8096C19.2501 46.1169 18.9766 45.1507 18.6485 43.9111C18.2839 42.708 17.9102 41.4411 17.5274 40.1104C17.1446 38.7796 16.7709 37.4762 16.4063 36.2002C16.0417 34.9242 15.7136 33.8669 15.4219 33.0283L44.7344 13.5596C44.7344 13.5596 45.0079 13.4229 45.5548 13.1494C46.1016 12.876 46.3751 13.0127 46.3751 13.5596C46.3751 13.5596 46.3477 13.6598 46.293 13.8604C46.2383 14.0609 46.0469 14.3252 45.7188 14.6533Z" fill="white"/>
</g>
<defs>
<clipPath id="clip0_18_901">
<rect width="56" height="56" fill="white" transform="matrix(1 0 0 -1 0 56.1064)"/>
</clipPath>
</defs>
</svg>
