<svg width="32" height="33" viewBox="0 0 32 33" fill="none" xmlns="http://www.w3.org/2000/svg">
<path d="M25.2863 32.1062L24.3765 31.575C23.1007 30.8666 21.8562 30.1375 20.6431 29.3875C19.4301 28.6375 18.2536 27.8458 17.1137 27.0125C15.9739 26.1791 14.8601 25.3041 13.7725 24.3875C12.685 23.45 11.6183 22.4708 10.5725 21.45C9.56863 20.45 8.60654 19.4083 7.68628 18.325C6.76601 17.2625 5.88758 16.1635 5.05098 15.0281C4.21438 13.8927 3.41961 12.7312 2.66667 11.5437C1.91373 10.3354 1.20261 9.09579 0.533333 7.82495L0 6.9187L6.83922 0.106201L15.1216 8.38745L12.4549 12.2312L19.7961 19.575L23.6863 16.9187L32 25.1687L25.2863 32.1062ZM12.4549 19.7C13.3961 20.5958 14.3477 21.4604 15.3098 22.2937C16.2928 23.127 17.2915 23.9291 18.3059 24.7C19.3203 25.4708 20.3712 26.2104 21.4588 26.9187C22.5255 27.6062 23.6235 28.2729 24.7529 28.9187L28.3922 25.2937L23.5608 20.5125L19.6706 23.1687L9.09804 12.6375L11.7647 8.76245L6.83922 3.82495L3.35686 7.44995C3.98431 8.57495 4.64314 9.6687 5.33333 10.7312C6.02353 11.8145 6.7451 12.8614 7.49804 13.8718C8.25098 14.8822 9.03529 15.877 9.85098 16.8562C10.6876 17.8145 11.5556 18.7625 12.4549 19.7Z" fill="white"/>
</svg>
