<svg width="50" height="48" viewBox="0 0 50 48" fill="none" xmlns="http://www.w3.org/2000/svg">
<path d="M38.3301 12.5996C38.7533 11.9486 39.0706 11.2731 39.2822 10.5732C39.4938 9.87337 39.5996 9.14909 39.5996 8.40039C39.5996 6.12175 38.7777 4.16862 37.1338 2.54102C35.4899 0.91341 33.5286 0.0996094 31.25 0.0996094C30.013 0.0996094 28.8411 0.351887 27.7344 0.856445C26.6276 1.361 25.7161 2.06901 25 2.98047C24.2839 2.06901 23.3724 1.361 22.2656 0.856445C21.1589 0.351887 19.987 0.0996094 18.75 0.0996094C16.4714 0.0996094 14.5101 0.91341 12.8662 2.54102C11.2223 4.16862 10.4004 6.12175 10.4004 8.40039C10.4004 9.14909 10.5062 9.87337 10.7178 10.5732C10.9294 11.2731 11.2467 11.9486 11.6699 12.5996H0V25.0996H4.15039V48H45.8496V25.0996H50V12.5996H38.3301ZM27.0996 8.40039C27.0996 7.26107 27.5065 6.2845 28.3203 5.4707C29.1341 4.6569 30.1107 4.25 31.25 4.25C32.3893 4.25 33.3659 4.6569 34.1797 5.4707C34.9935 6.2845 35.4004 7.26107 35.4004 8.40039C35.4004 9.57227 34.9935 10.5651 34.1797 11.3789C33.3659 12.1927 32.3893 12.5996 31.25 12.5996H27.0996V8.40039ZM18.75 4.25C19.8893 4.25 20.8659 4.6569 21.6797 5.4707C22.4935 6.2845 22.9004 7.26107 22.9004 8.40039V12.5996H18.75C17.6107 12.5996 16.6341 12.1927 15.8203 11.3789C15.0065 10.5651 14.5996 9.57227 14.5996 8.40039C14.5996 7.26107 15.0065 6.2845 15.8203 5.4707C16.6341 4.6569 17.6107 4.25 18.75 4.25ZM41.6504 43.8496H8.34961V25.0996H41.6504V43.8496ZM45.8496 20.9004H4.15039V16.75H45.8496V20.9004Z" fill="#F18F01"/>
</svg>
