<svg width="72" height="72" viewBox="0 0 72 72" fill="none" xmlns="http://www.w3.org/2000/svg">
<rect x="14.2153" y="14.4048" width="43" height="43" rx="21.5" stroke="#1C3747" stroke-opacity="0.9" stroke-width="2"/>
<g clip-path="url(#clip0_20_1242)">
<path d="M47.9712 30.9243C47.9712 30.9243 47.902 30.6029 47.7637 29.96C47.6253 29.3171 47.369 28.8084 46.9946 28.4341C46.5063 27.9295 46.0221 27.6325 45.542 27.543C45.0618 27.4535 44.6997 27.3924 44.4556 27.3599C43.5929 27.2948 42.6489 27.2459 41.6235 27.2134C40.6144 27.1808 39.6704 27.1564 38.7915 27.1401C37.9126 27.1239 37.1802 27.1157 36.5942 27.1157C36.0083 27.1157 35.7153 27.1157 35.7153 27.1157C35.7153 27.1157 35.4224 27.1157 34.8364 27.1157C34.2505 27.1157 33.5181 27.1239 32.6392 27.1401C31.7603 27.1564 30.8162 27.1808 29.8071 27.2134C28.7817 27.2459 27.8377 27.2948 26.9751 27.3599C26.731 27.3761 26.3688 27.429 25.8887 27.5186C25.4085 27.6081 24.9243 27.9132 24.436 28.4341C24.078 28.7922 23.8257 29.2967 23.6792 29.9478C23.5327 30.5988 23.4595 30.9243 23.4595 30.9243C23.4595 30.9243 23.4188 31.3394 23.3374 32.1694C23.256 32.9995 23.2153 33.9191 23.2153 34.9282V36.8325C23.2153 37.8579 23.256 38.7897 23.3374 39.6279C23.4188 40.4661 23.4595 40.8853 23.4595 40.8853C23.4595 40.8853 23.5286 41.2026 23.667 41.8374C23.8053 42.4722 24.0617 42.9849 24.436 43.3755C24.9243 43.8638 25.4411 44.1527 25.9863 44.2422C26.5316 44.3317 26.9425 44.4009 27.2192 44.4497C27.7238 44.4985 28.4481 44.5392 29.3921 44.5718C30.3361 44.6043 31.276 44.6287 32.2119 44.645C33.1478 44.6613 33.9657 44.6776 34.6655 44.6938C35.3654 44.6938 35.7153 44.6938 35.7153 44.6938C35.7153 44.6938 36.0083 44.6938 36.5942 44.6938C37.1802 44.6938 37.9126 44.6857 38.7915 44.6694C39.6704 44.6532 40.6144 44.6287 41.6235 44.5962C42.6489 44.5636 43.5929 44.5148 44.4556 44.4497C44.6997 44.4334 45.0618 44.3724 45.542 44.2666C46.0221 44.1608 46.5063 43.8638 46.9946 43.3755C47.3527 42.9849 47.605 42.4722 47.7515 41.8374C47.8979 41.2026 47.9712 40.8853 47.9712 40.8853C47.9712 40.8853 48.0119 40.4661 48.0933 39.6279C48.1746 38.7897 48.2153 37.8579 48.2153 36.8325V34.9282C48.2153 33.9354 48.1746 33.0199 48.0933 32.1816C48.0119 31.3434 47.9712 30.9243 47.9712 30.9243ZM39.0845 36.1001L33.1763 39.1763V32.145L39.9146 35.6606L39.0845 36.1001Z" fill="#33475B"/>
</g>
<defs>
<clipPath id="clip0_20_1242">
<rect width="25" height="25" fill="white" transform="matrix(1 0 0 -1 23.2153 48.4048)"/>
</clipPath>
</defs>
</svg>
